<svg width="67" height="67" xmlns="http://www.w3.org/2000/svg">

 <g>
  <title>background</title>
  <rect fill="none" id="canvas_background" height="402" width="582" y="-1" x="-1"/>
 </g>
 <g>
  <title>Layer 1</title>
  <path stroke="null" id="fs" fill-rule="evenodd" clip-rule="evenodd" fill="#3A589B" d="m28.766201,51.686589l7.520073,0l0,-18.200271l5.016727,0l0.664585,-6.271188l-5.681312,0l0.007806,-3.140054c0,-1.634701 0.156111,-2.512266 2.502231,-2.512266l3.135594,0l0,-6.272303l-5.017842,0c-6.026986,0 -8.147861,3.043042 -8.147861,8.159011l0,3.765612l-3.756691,0l0,6.272303l3.756691,0l0,18.199156zm4.722347,15.25424c-18.47458,0 -33.452281,-14.977701 -33.452281,-33.452281c0,-18.475695 14.977701,-33.452281 33.452281,-33.452281s33.452281,14.976586 33.452281,33.452281c0,18.47458 -14.977701,33.452281 -33.452281,33.452281z"/>
 </g>
</svg>