<?xml version="1.0" encoding="utf-8"?>
<!-- Svg Vector Icons : http://www.onlinewebfonts.com/icon -->
<!DOCTYPE svg PUBLIC "-//W3C//DTD SVG 1.1//EN" "http://www.w3.org/Graphics/SVG/1.1/DTD/svg11.dtd">
<svg version="1.1" xmlns="http://www.w3.org/2000/svg" xmlns:xlink="http://www.w3.org/1999/xlink" x="0px" y="0px" viewBox="0 0 1000 1000" enable-background="new 0 0 1000 1000" xml:space="preserve">
<metadata> Svg Vector Icons : http://www.onlinewebfonts.com/icon </metadata>
<g><g transform="translate(0.000000,511.000000) scale(0.100000,-0.100000)"><path fill="#33c1e3" d="M1955.6,4955.4C1098.2,4780.2,443.1,4356.6,180.3,3808c-110.6-227.4-110.6-233.7,23-630C1181.6,301,2746.3-1887.4,4813.8-3268.5c953.4-636.3,1856.7-1038.9,3181.5-1414.5c429.8-123.1,492.3-121,709.3,18.8c559.1,363,986.8,1057.7,1149.5,1865.1l45.9,233.7l-64.7,129.4c-135.6,273.3-454.8,615.4-830.3,884.5c-340.1,244.1-974.3,517.4-1262.2,544.5c-148.1,14.6-177.3,0-456.9-225.3c-381.8-308.8-876.2-615.4-1112-694.7l-100.2-33.4l-146,75.1C5028.7-1434.7,4046-548.1,3445.2,351.1c-231.6,344.2-379.7,644.6-379.7,763.6c0,198.2,350.5,746.9,813.6,1280.9c83.4,96,158.5,198.2,164.8,227.4c8.3,29.2,8.3,121,2.1,204.5c-31.3,423.5-267.1,917.9-638.4,1341.4c-277.5,319.2-930.4,782.3-1159.9,822C2214.3,4997.1,2082.9,4982.5,1955.6,4955.4z"/></g></g>
</svg>