<!-- this is edited by alexey808@gmail.com =) -->
<svg enable-background="new 0 0 512 512" height="67px" version="1.1" viewBox="0 0 512 512" width="67px" xml:space="preserve" xmlns="http://www.w3.org/2000/svg" xmlns:xlink="http://www.w3.org/1999/xlink">
<!-- <svg height="67px" id="Layer_1" style="enable-background:new 0 0 67 67;" version="1.1" viewBox="0 0 67 67" width="67px" xml:space="preserve" xmlns="http://www.w3.org/2000/svg" xmlns:xlink="http://www.w3.org/1999/xlink"> -->
	
	<path d="M440.111,255.754c0,100.923-81.81,182.732-182.732,182.732c-100.916,0-182.732-81.81-182.732-182.732   c0-100.919,81.816-182.733,182.732-182.733C358.302,73.021,440.111,154.834,440.111,255.754z" fill="#4c75a3"/>
	<g>
		<path d="M330.665,291.259c0,9.107-1.724,17.106-5.169,23.999c-3.446,6.892-8.08,12.596-13.907,17.106    c-6.892,5.415-14.461,9.273-22.706,11.568c-8.246,2.295-18.725,3.446-31.441,3.446h-73.349v-183.25h64.734    c13.454,0,23.65,0.514,30.579,1.539c6.936,1.027,13.439,3.181,19.507,6.461c6.565,3.529,11.47,8.246,14.707,14.153    c3.242,5.908,4.86,12.719,4.86,20.43c0,8.944-2.233,16.903-6.707,23.875c-4.467,6.975-10.646,12.104-18.521,15.383v0.984    c11.322,2.382,20.393,7.243,27.198,14.584C327.262,268.879,330.665,278.786,330.665,291.259z M271.715,215.94    c0-2.954-0.757-5.987-2.277-9.107c-1.514-3.117-3.876-5.372-7.076-6.769c-3.033-1.311-6.624-2.03-10.765-2.153    c-4.145-0.123-10.319-0.185-18.522-0.185h-3.2v38.767h5.784c7.876,0,13.393-0.08,16.553-0.246    c3.157-0.163,6.418-1.025,9.781-2.584c3.692-1.723,6.239-4.102,7.63-7.138C271.02,223.491,271.715,219.962,271.715,215.94z     M283.283,290.397c0-5.661-1.145-10.092-3.446-13.291c-2.295-3.2-5.741-5.618-10.338-7.262c-2.787-1.064-6.621-1.661-11.504-1.784    c-4.882-0.123-11.426-0.185-19.629-0.185h-8.492v45.904h2.461c11.978,0,20.263-0.079,24.859-0.246    c4.594-0.166,9.271-1.273,14.027-3.322c4.185-1.803,7.242-4.449,9.168-7.938C282.323,298.785,283.283,294.828,283.283,290.397z" fill="#FFFFFF"/>
	</g>
</svg>