<svg width="67" height="67" xmlns="http://www.w3.org/2000/svg">

 <g>
  <title>background</title>
  <rect fill="none" id="canvas_background" height="402" width="582" y="-1" x="-1"/>
 </g>
 <g>
  <title>Layer 1</title>
  <path stroke="null" id="svg_1" fill-rule="evenodd" clip-rule="evenodd" fill="#598DCA" d="m38.07115,20.487183c-2.920376,1.062664 -4.765822,3.803514 -4.556188,6.80306l0.07025,1.157446l-1.168596,-0.141614c-4.251773,-0.543041 -7.967196,-2.385141 -11.121737,-5.480583l-1.542146,-1.535455l-0.396966,1.134029c-0.840765,2.52787 -0.3033,5.197355 1.44848,6.992622c0.934431,0.992415 0.723682,1.134029 -0.887598,0.543041c-0.560882,-0.188447 -1.051514,-0.330062 -1.098347,-0.259812c-0.162801,0.166146 0.396966,2.314891 0.840765,3.165692c0.607715,1.181977 1.845446,2.338308 3.201374,3.024078l1.14518,0.543041l-1.354814,0.023417c-1.307981,0 -1.354814,0.023417 -1.214314,0.520739c0.467216,1.535455 2.312661,3.165692 4.368856,3.874878l1.44848,0.495092l-1.261147,0.756019c-1.868862,1.088311 -4.065556,1.701601 -6.262249,1.747319c-1.052629,0.023417 -1.91681,0.118198 -1.91681,0.189562c0,0.23528 2.851241,1.557757 4.509355,2.078496c4.97657,1.535455 10.888687,0.873102 15.327792,-1.748434c3.154541,-1.866632 6.307967,-5.575365 7.780979,-9.167014c0.795047,-1.91235 1.588979,-5.409219 1.588979,-7.085173c0,-1.087196 0.07025,-1.22881 1.37823,-2.52787c0.77163,-0.756019 1.495313,-1.582288 1.635812,-1.818684c0.234165,-0.449374 0.209634,-0.449374 -0.981264,-0.047948c-1.985945,0.709186 -2.266943,0.614405 -1.284564,-0.448259c0.723682,-0.756019 1.588979,-2.126444 1.588979,-2.52787c0,-0.07025 -0.350133,0.046833 -0.748214,0.259812c-0.420382,0.236395 -1.354814,0.590989 -2.056194,0.802852l-1.261147,0.402541l-1.14518,-0.780551c-0.631131,-0.424843 -1.517614,-0.897634 -1.985945,-1.039248c-1.192013,-0.330062 -3.015157,-0.283229 -4.090087,0.094781zm-4.646509,46.517496c-18.474528,0 -33.452187,-14.977659 -33.452187,-33.452187c0,-18.475643 14.977659,-33.452187 33.452187,-33.452187s33.452187,14.976544 33.452187,33.452187c0,18.474528 -14.977659,33.452187 -33.452187,33.452187z"/>
 </g>
</svg>