<svg width="67" height="67" xmlns="http://www.w3.org/2000/svg">
 <g>
  <title>background</title>
  <rect x="-1" y="-1" width="69" height="69" id="canvas_background" fill="none"/>
 </g>

 <g>
  <title>Layer 1</title>
  <rect stroke="null" height="66.98516" id="rect2990-1" rx="250" ry="250" width="66.98516" y="-0.000003" fill="#537599" x="0"/>
  <path stroke="null" fill-rule="evenodd" clip-rule="evenodd" fill="#ffffff" d="m20.8706,17.26284l0,34.019846l16.674199,0c5.232719,0 7.731304,-1.72439 9.330276,-3.709736c1.598757,-1.985346 2.400415,-4.236178 2.400415,-6.762c0,-4.219894 -3.237935,-7.170193 -7.769172,-8.233589c1.949709,-0.515283 3.41722,-1.079836 4.400754,-2.450771c0.983104,-1.370935 1.474386,-2.90758 1.474386,-4.60219c0,-2.326469 -0.847642,-3.731135 -2.540306,-5.542213c-1.692986,-1.811079 -4.383424,-2.719347 -8.076906,-2.719347l-15.893647,0zm8.837879,6.728425l3.975514,0c2.393813,0 3.592221,0.867359 3.592221,2.761322c0,0.697736 -0.256566,2.009698 -0.769354,2.624227c-0.513336,0.614744 -1.398602,0.923143 -2.646614,0.923231l-4.151767,0l0,-6.30878zm-0.04756,13.535198l4.873572,0c1.572977,0 2.655318,0.328712 3.245309,0.984786c0.589561,0.656406 0.884072,1.373165 0.884072,2.154226c0,0.781266 -0.302551,1.483404 -0.909246,2.106646c-0.60736,0.623585 -1.562806,0.934429 -2.862035,0.934429l-5.231672,0l0,-6.180087z" id="rect2989"/>
 </g>
</svg>