<svg version="1" xmlns="http://www.w3.org/2000/svg" width="346.667" height="346.667" viewBox="0 0 260.000000 260.000000"><path d="M107.5 11.7c-36.6 6.6-69 30.4-85.9 63.2C12 93.5 9 105.2 8.3 127c-.4 14.3-.2 17.9 1.6 26.9 5.2 24.9 15.1 43.9 32.4 61.8 29.5 30.6 74.7 43.4 116.1 32.9 27.2-6.9 49.4-21.5 66.6-43.8 28.5-36.8 33.1-87.4 11.8-129-17.1-33.5-47.3-56.1-85-63.8-11.6-2.4-32.1-2.5-44.3-.3zm20.9 32.9c2.6 2 6.6 4.7 8.9 6 4.1 2.3 4.1 2.4 1.4 2.4-2 0-3 .6-3.4 1.9-.9 3.3-10.3 3.9-10.3.6 0-2.8-8.7-3.5-13.4-1-1.5.8-3.2 1.5-3.7 1.5-1.1 0-1.2-3.4-.3-8 .6-2.8 1-3.1 3.5-2.8 2.2.4 3.3-.1 4.4-1.9 2.4-3.6 7.2-3.1 12.9 1.3zM153 55c0 .5-.6 1-1.4 1-.8 0-1.8-.5-2.1-1-.3-.6.3-1 1.4-1 1.2 0 2.1.4 2.1 1zm-27.7 4.9c.5.5.7 2.5.3 4.6-.5 2.6-1.4 3.9-3.2 4.5-3.3 1.3-3.1 1.4-3-1.3.1-1.6-.5-2.3-2.3-2.5-2-.3-2.3 0-1.9 2 .4 2.1.1 2.4-1.8 2-4.3-.8-5.9-8.6-2.1-10.2 2.6-1.2 12.6-.5 14 .9zm22.5-1.3c2.9.8 3.9 4.7 1.9 7.8-2.2 3.2-5.3 4-5.3 1.2.1-1.5-.6-2.2-2.3-2.4-2-.3-2.3 0-1.9 2 .4 2.1.1 2.4-1.8 2-2.1-.4-4.4-4.4-4.4-7.8 0-2.3 8.8-4.1 13.8-2.8zm-43.3 12.3l-.8 4.6-1.4-6c-1.3-5.5-1.2-6.1.4-7.3 1.6-1.2 1.8-1 2.1 1.4.2 1.5 0 4.8-.3 7.3zm53-3.6c.1 5.1-1.3 10.2-1.5 5.7 0-1.4-.4-4.5-.7-6.9-.4-3.4-.2-4.2.8-3.9.9.3 1.4 2.1 1.4 5.1zm-25.1-.8c.9 2.2 2.6 3.9 4.3 4.6 3.7 1.4 10.9.6 13.3-1.6 1.9-1.8 2-1.7 2 .8 0 2.7-3 6.6-5.2 6.8-.7.1-8.3.2-16.8.3-17.3.2-20.6-.6-21.6-5.2-.3-1.5-.8-3.4-1-4.2-.3-.9.4-.6 1.9.8 5.3 5 15.8 3.6 18.3-2.4 1.8-4.3 3-4.3 4.8.1zm2.9 17.2c-1.8 1.4-6.3 1.7-10 .7-4.2-1.2-2.3-1.9 4.7-1.9 5.9 0 6.8.2 5.3 1.2zm-.3 13.8c-1.3 1.6-3.5 2.1-2.5.6.3-.6-.6-.6-2.5-.1-3.3.9-6 .4-6-1.1 0-.5 2.8-.9 6.1-.9 5.4 0 6 .2 4.9 1.5zm-13 4.5c0 1.7.6 1.9 5.4 1.7 3.3-.2 5.2.1 4.9.7-.4.5.1.7 1.1.3 1-.4 2.4-.7 3.2-.7.8 0 1.4-.9 1.4-2s.5-2 1.1-2c.7 0 .9.9.6 2.1-.6 2.2-.5 2.2 11.8 1.5 9.3-.6 12.5-.4 13.1.5.5.8.3 1-.7.4-1.1-.6-1.2-.5-.1.6.8.9 1.2 5.4 1.2 15.1V134l5.1 2.6c9.4 4.7 17 14.6 18.5 24.3.6 3.5 1.1 4.2 4.3 5.2 7.3 2.4 12.1 6.8 15.7 14.4 4.4 9.3 2.2 20.6-5.6 28.3-7 7.1-2.8 6.7-71.3 7-39.6.2-63.1-.1-65.5-.8-7.5-2-14.1-11.3-14.2-19.8 0-9.2 7.9-18.7 16.7-20.1 3-.5 3.8-1.2 4.4-3.5 1.1-4.2 5.5-8.3 10.7-10.1 4.2-1.4 4.7-1.4 6.2.3.9.9 4.6 3.2 8.3 5.1l6.7 3.4-4.2 2.4c-6 3.4-10.8 8.3-10.8 11 0 3.2 5.3 4 11.8 1.9 2.8-1 6.3-1.4 8.2-1.1 3.8.7 5.6-.6 6.5-4.6.4-1.6 1.1-2.9 1.6-2.9.6 0 .6.8-.1 1.9-1.4 2.7-1.3 3 .9 2.4 1.3-.3 2.4.4 3.7 2.7 1.5 2.4 2.4 3 3.9 2.5 2.7-.9 4.7-.9 6.5-.1 1.1.5 2.5-.7 4.8-3.9 1.8-2.5 3.2-5 3.2-5.6 0-.6.5-.7 1-.4.6.3 1 1.6.9 2.8 0 1.2-.3 1.6-.6.9-.2-.6-.9-1-1.4-.6-1.8 1.1 6 5.4 8.9 4.9 1.4-.2 5.4.3 8.8 1.2 6.8 1.8 11.4.9 11.4-2.2 0-3.9-12.9-13-21.2-15-1.6-.4-2.8-1.1-2.8-1.6 0-.4-1.2-1.6-2.7-2.4-1.6-.9-2.1-1.4-1.3-1.2.8.2 4.9 1.4 9.1 2.7l7.6 2.2 4.4-2.2c6.1-3.1 8.8-5.8 9.5-9.5.7-4-1.5-8.6-5.5-11.4-3.8-2.7-6.8-2.6-12.5.4-5 2.6-12.6 3.4-12.6 1.3 0-.9-.3-.9-1.2 0-.8.8-5.8 1.2-16.1 1.2-13.9 0-15.2-.2-20.3-2.6-3.6-1.7-6.3-2.4-7.9-2l-2.5.6v-18.9c0-16.3.2-19.2 1.7-20.6 1.4-1.4 3.2-1.6 13.6-.9l11.9.7-1.1-2.2c-1-1.7-.9-2.1.4-2.1.8 0 1.5.9 1.5 2z"/><path d="M145.3 146.7c.9.2 2.3.2 3 0 .6-.3-.1-.5-1.8-.5-1.6 0-2.2.2-1.2.5z"/></svg>